<?xml version="1.0" encoding="UTF-8" standalone="no"?>
<svg
   width="3300pt"
   height="2200pt"
   viewBox="0 0 3300 2200"
   version="1.1"
   id="svg597"
   sodipodi:docname="logo.svg"
   inkscape:version="1.1.1 (c3084ef, 2021-09-22)"
   xmlns:inkscape="http://www.inkscape.org/namespaces/inkscape"
   xmlns:sodipodi="http://sodipodi.sourceforge.net/DTD/sodipodi-0.dtd"
   xmlns="http://www.w3.org/2000/svg"
   xmlns:svg="http://www.w3.org/2000/svg">
  <defs
     id="defs601">
    <rect
       x="1665.0281"
       y="721.39073"
       width="1665.0281"
       height="619.37588"
       id="rect3644" />
  </defs>
  <sodipodi:namedview
     id="namedview599"
     pagecolor="#ffffff"
     bordercolor="#666666"
     borderopacity="1.0"
     inkscape:pageshadow="2"
     inkscape:pageopacity="0.0"
     inkscape:pagecheckerboard="0"
     inkscape:document-units="pt"
     showgrid="false"
     inkscape:zoom="0.10365898"
     inkscape:cx="1939.0505"
     inkscape:cy="1162.4656"
     inkscape:window-width="1727"
     inkscape:window-height="969"
     inkscape:window-x="0"
     inkscape:window-y="38"
     inkscape:window-maximized="0"
     inkscape:current-layer="svg597" />
  <path
     style="fill:#ff7f2a;fill-opacity:1;fill-rule:nonzero;stroke:none"
     d="m 676.90367,814.0107 c 0,-177.04687 -126.65235,-282.41797 -205.60938,-330.91795 -10.01953,-6.1523 -20.82812,6.6289 -13.16797,15.57811 24.61329,28.76953 53.33594,69.90234 72.71875,121.75 -17.54296,-5.00782 -36.07421,-7.67969 -55.21875,-7.67969 -111.16015,0 -201.27343,90.10937 -201.27343,201.26953 0,111.17188 90.11328,201.2813 201.27343,201.2813 111.16407,0 201.27735,-90.10942 201.27735,-201.2813"
     id="path574" />
  <path
     id="path572-8"
     style="fill:#008080;fill-opacity:1;fill-rule:nonzero;stroke:none;stroke-width:0.999997"
     d="m 905.27808,482.14671 c -7.83127,0.11978 -13.80007,9.92018 -7.5762,17.19141 24.61328,28.76953 53.33693,69.90283 72.72368,121.75049 -11.6343,-3.3204 -23.70938,-5.59019 -36.1011,-6.75879 a 201.27544,201.27544 0 0 1 182.15474,200.34814 c 0,-177.04683 -126.65144,-282.41847 -205.60837,-330.91845 -1.87867,-1.15356 -3.78555,-1.64043 -5.59275,-1.6128 z m 9.9243,131.26173 c -8.68185,0 -17.21625,0.61082 -25.60837,1.67724 a 201.27544,201.27544 0 0 1 25.60837,-1.67724 z m 0.006,0 a 201.27544,201.27544 0 0 1 8.50785,0.19629 c -2.82322,-0.11754 -5.6562,-0.19621 -8.50785,-0.19629 z m 10.626,0.30615 a 201.27544,201.27544 0 0 1 7.06493,0.49072 c -2.34405,-0.20434 -4.69883,-0.36749 -7.06493,-0.49072 z m -37.46925,1.52783 c -26.46442,3.52846 -51.28875,12.18994 -73.4634,24.96533 a 201.27544,201.27544 0 0 1 73.4634,-24.96533 z m -74.09325,25.32715 c -7.3848,4.29016 -14.47665,9.02152 -21.2271,14.18554 a 201.27544,201.27544 0 0 1 21.2271,-14.18554 z m -22.07085,14.84912 c -13.57762,10.50163 -25.77007,22.69277 -36.27097,36.271 a 201.27544,201.27544 0 0 1 36.27097,-36.271 z m -36.92137,37.09863 c -5.1705,6.7582 -9.90563,13.85791 -14.2002,21.25195 a 201.27544,201.27544 0 0 1 14.2002,-21.25195 z m -14.54003,21.84229 c -12.78502,22.18518 -21.45247,47.02443 -24.97995,73.50439 a 201.27544,201.27544 0 0 1 24.97995,-73.50439 z m -25.13085,74.69385 c -1.06777,8.39728 -1.68015,16.9371 -1.68015,25.6245 a 201.27544,201.27544 0 0 1 1.68015,-25.6245 z m -1.68015,25.63476 c 3.8e-4,8.68148 0.61208,17.21525 1.67865,25.60695 a 201.27544,201.27544 0 0 1 -1.67865,-25.60695 z m 402.55077,0 a 201.27544,201.27544 0 0 1 -1.6772,25.59518 c 1.0655,-8.38793 1.6768,-16.91771 1.6772,-25.59518 z m -400.71537,26.83155 c 3.52838,26.4624 12.18825,51.28478 24.96098,73.45748 a 201.27544,201.27544 0 0 1 -24.96098,-73.45748 z m 398.87997,0.0117 a 201.27544,201.27544 0 0 1 -24.9551,73.437 c 12.7682,-22.16722 21.4262,-46.9824 24.9551,-73.437 z m -373.54692,74.09325 c 4.28633,7.37745 9.01095,14.46233 14.16945,21.20655 a 201.27544,201.27544 0 0 1 -14.16945,-21.20655 z m 348.21092,0.006 a 201.27544,201.27544 0 0 1 -14.1664,21.2007 c 5.1571,-6.74242 9.881,-13.82542 14.1664,-21.2007 z M 755.95203,937.703 c 5.2458,6.7809 10.87635,13.25077 16.92923,19.30372 A 201.27544,201.27544 0 0 1 755.95203,937.703 Z m 16.92923,19.30372 c 6.05332,6.05348 12.52237,11.68298 19.30372,16.92923 A 201.27544,201.27544 0 0 1 772.88126,957.00672 Z M 1074.456,937.7045 a 201.27544,201.27544 0 0 1 -16.9277,19.30222 c 6.0526,-6.05272 11.6821,-12.5217 16.9277,-19.30222 z m -16.9277,19.30222 a 201.27544,201.27544 0 0 1 -19.2905,16.91745 c 6.7759,-5.24295 13.2414,-10.8684 19.2905,-16.91745 z m -264.47174,17.61473 c 6.7467,5.16052 13.83502,9.8877 21.21532,14.1753 a 201.27544,201.27544 0 0 1 -21.21532,-14.1753 z m 244.28614,0.006 a 201.27544,201.27544 0 0 1 -21.2065,14.16945 c 7.3773,-4.28588 14.4622,-9.0114 21.2065,-14.16945 z M 814.90173,989.1587 c 22.18005,12.7788 47.0109,21.4429 73.48245,24.9698 a 201.27544,201.27544 0 0 1 -73.48245,-24.9698 z m 200.60457,0 a 201.27544,201.27544 0 0 1 -73.47957,24.9684 c 26.4705,-3.5274 51.30045,-12.1904 73.47957,-24.9684 z m -125.93562,25.1207 c 8.3997,1.0684 16.9419,1.6801 25.63185,1.6801 a 201.27544,201.27544 0 0 1 -25.63185,-1.6801 z m 51.2622,0 a 201.27544,201.27544 0 0 1 -25.62742,1.6801 c 8.68845,0 17.22915,-0.612 25.62742,-1.6801 z" />
  <circle
     style="fill:#ff7f2a;stroke-width:0.728317"
     id="path1358-9"
     cx="915.17102"
     cy="814.01654"
     r="201.27544" />
  <text
     xml:space="preserve"
     transform="scale(0.75)"
     id="text3642"
     style="fill:black;fill-opacity:1;line-height:1.25;stroke:none;font-family:sans-serif;font-style:normal;font-weight:normal;font-size:40px;white-space:pre;shape-inside:url(#rect3644)" />
  <text
     xml:space="preserve"
     style="font-style:normal;font-variant:normal;font-weight:normal;font-stretch:normal;font-size:250px;line-height:1.25;font-family:Chalkboard;-inkscape-font-specification:'Chalkboard, Normal';font-variant-ligatures:normal;font-variant-caps:normal;font-variant-numeric:normal;font-variant-east-asian:normal;fill:#000000;fill-opacity:1;stroke:none;stroke-width:0.75"
     x="1278.8291"
     y="683.13519"
     id="text4552"><tspan
       sodipodi:role="line"
       id="tspan4550"
       style="font-style:normal;font-variant:normal;font-weight:normal;font-stretch:normal;font-size:450px;font-family:Chalkboard;-inkscape-font-specification:'Chalkboard, Normal';font-variant-ligatures:normal;font-variant-caps:normal;font-variant-numeric:normal;font-variant-east-asian:normal;stroke-width:0.75"
       x="1278.8291"
       y="683.13519">double</tspan></text>
  <text
     xml:space="preserve"
     style="font-style:normal;font-variant:normal;font-weight:normal;font-stretch:normal;font-size:250px;line-height:1.25;font-family:Chalkboard;-inkscape-font-specification:'Chalkboard, Normal';font-variant-ligatures:normal;font-variant-caps:normal;font-variant-numeric:normal;font-variant-east-asian:normal;fill:#d40000;fill-opacity:1;stroke:none;stroke-width:0.75"
     x="1254.2362"
     y="1002.7845"
     id="text6712"><tspan
       sodipodi:role="line"
       id="tspan6710"
       style="font-style:normal;font-variant:normal;font-weight:normal;font-stretch:normal;font-size:450px;font-family:Chalkboard;-inkscape-font-specification:'Chalkboard, Normal';font-variant-ligatures:normal;font-variant-caps:normal;font-variant-numeric:normal;font-variant-east-asian:normal;fill:#d40000;stroke-width:0.75"
       x="1254.2362"
       y="1002.7845">opinion</tspan></text>
  <rect
     style="fill:#000000;stroke-width:0.646304"
     id="rect20430"
     width="38.255569"
     height="746.73163"
     x="1175.085"
     y="377.63245" />
</svg>
